<?xml version="1.0" encoding="utf-8"?>
<!-- Generator: Adobe Illustrator 22.0.1, SVG Export Plug-In . SVG Version: 6.00 Build 0)  -->
<svg version="1.1" id="Layer_1" xmlns="http://www.w3.org/2000/svg" xmlns:xlink="http://www.w3.org/1999/xlink" x="0px" y="0px"
	 viewBox="0 0 20 20" style="enable-background:new 0 0 20 20;" xml:space="preserve">
<style type="text/css">
	.st0{fill:#FFFFFF;}
</style>
<path class="st0" d="M19.1,0.9C18.5,0.3,17.8,0,17,0s-1.5,0.3-2.1,0.9L2.1,13.6c-0.1,0.1-0.1,0.1-0.1,0.2l-2,5.5
	c-0.1,0.2,0,0.4,0.1,0.5C0.2,19.9,0.4,20,0.5,20c0.1,0,0.1,0,0.2,0l5.5-2c0.1,0,0.1-0.1,0.2-0.1L19.1,5.1C19.7,4.5,20,3.8,20,3
	S19.7,1.5,19.1,0.9L19.1,0.9z M5.7,17.1l-4.4,1.6l1.6-4.4L14,3.2L16.8,6C16.8,6,5.7,17.1,5.7,17.1z M18.4,4.4l-0.9,0.9l-2.8-2.8
	l0.9-0.9C16,1.2,16.5,1,17,1s1,0.2,1.4,0.6S19,2.5,19,3S18.8,4,18.4,4.4L18.4,4.4z"/>
</svg>
